STARTFONT 2.3
FONT -FontForge-Tangerine-Book-R-Normal--8-80-72-72-P-29-ISO10646-1
SIZE 8 72 72  4
FONTBOUNDINGBOX 14 9 -3 -3
COMMENT "Generated by fontforge, http://fontforge.sourceforge.net"
COMMENT "Copyright (c) 2010 by Toshi Omagari. All rights reserved."
STARTPROPERTIES 40
FOUNDRY "FontForge"
FAMILY_NAME "Tangerine"
WEIGHT_NAME "Book"
SLANT "R"
SETWIDTH_NAME "Normal"
ADD_STYLE_NAME ""
PIXEL_SIZE 8
POINT_SIZE 80
RESOLUTION_X 72
RESOLUTION_Y 72
SPACING "P"
AVERAGE_WIDTH 29
CHARSET_REGISTRY "ISO10646"
CHARSET_ENCODING "1"
FONTNAME_REGISTRY ""
CHARSET_COLLECTIONS "ISO10646-1"
BITS_PER_PIXEL 4
FONT_NAME "Tangerine-Regular"
FACE_NAME "Tangerine Regular"
COPYRIGHT "Copyright (c) 2010 by Toshi Omagari. All rights reserved."
FONT_VERSION "1.3"
FONT_ASCENT 6
FONT_DESCENT 2
UNDERLINE_POSITION -1
UNDERLINE_THICKNESS 1
X_HEIGHT 1
CAP_HEIGHT 5
RAW_ASCENT 750
RAW_DESCENT 250
NORM_SPACE 1
RELATIVE_WEIGHT 40
RELATIVE_SETWIDTH 50
SUPERSCRIPT_X 0
SUPERSCRIPT_Y 3
SUPERSCRIPT_SIZE 5
SUBSCRIPT_X 0
SUBSCRIPT_Y 1
SUBSCRIPT_SIZE 5
AVG_LOWERCASE_WIDTH 19
AVG_UPPERCASE_WIDTH 56
ENDPROPERTIES
CHARS 233
STARTCHAR space
ENCODING 32
SWIDTH 150 0
DWIDTH 1 0
BBX 1 1 0 0
BITMAP
00
ENDCHAR
STARTCHAR exclam
ENCODING 33
SWIDTH 189 0
DWIDTH 2 0
BBX 3 5 0 0
BITMAP
0010
0230
0300
0200
2000
ENDCHAR
STARTCHAR quotedbl
ENCODING 34
SWIDTH 214 0
DWIDTH 2 0
BBX 2 2 0 2
BITMAP
02
23
ENDCHAR
STARTCHAR numbersign
ENCODING 35
SWIDTH 289 0
DWIDTH 2 0
BBX 3 3 0 0
BITMAP
0210
4710
3300
ENDCHAR
STARTCHAR dollar
ENCODING 36
SWIDTH 269 0
DWIDTH 2 0
BBX 2 4 0 -1
BITMAP
05
15
54
10
ENDCHAR
STARTCHAR percent
ENCODING 37
SWIDTH 388 0
DWIDTH 3 0
BBX 3 4 0 -1
BITMAP
2230
5440
1540
2000
ENDCHAR
STARTCHAR ampersand
ENCODING 38
SWIDTH 507 0
DWIDTH 4 0
BBX 4 4 0 0
BITMAP
0230
0510
3513
6463
ENDCHAR
STARTCHAR quotesingle
ENCODING 39
SWIDTH 120 0
DWIDTH 1 0
BBX 2 2 0 2
BITMAP
01
20
ENDCHAR
STARTCHAR parenleft
ENCODING 40
SWIDTH 250 0
DWIDTH 2 0
BBX 3 6 0 -1
BITMAP
0120
0400
1400
3200
3000
1100
ENDCHAR
STARTCHAR parenright
ENCODING 41
SWIDTH 276 0
DWIDTH 2 0
BBX 3 6 0 -1
BITMAP
0200
0210
0400
0400
0300
2000
ENDCHAR
STARTCHAR asterisk
ENCODING 42
SWIDTH 188 0
DWIDTH 2 0
BBX 2 2 0 2
BITMAP
01
33
ENDCHAR
STARTCHAR plus
ENCODING 43
SWIDTH 301 0
DWIDTH 2 0
BBX 2 2 0 0
BITMAP
15
02
ENDCHAR
STARTCHAR comma
ENCODING 44
SWIDTH 112 0
DWIDTH 1 0
BBX 1 2 0 -1
BITMAP
20
10
ENDCHAR
STARTCHAR hyphen
ENCODING 45
SWIDTH 245 0
DWIDTH 2 0
BBX 2 1 0 1
BITMAP
22
ENDCHAR
STARTCHAR period
ENCODING 46
SWIDTH 112 0
DWIDTH 1 0
BBX 1 1 0 0
BITMAP
20
ENDCHAR
STARTCHAR slash
ENCODING 47
SWIDTH 210 0
DWIDTH 2 0
BBX 4 6 -1 -1
BITMAP
0003
0012
0030
0210
0300
1000
ENDCHAR
STARTCHAR zero
ENCODING 48
SWIDTH 349 0
DWIDTH 3 0
BBX 3 3 0 0
BITMAP
0320
2040
4310
ENDCHAR
STARTCHAR one
ENCODING 49
SWIDTH 189 0
DWIDTH 2 0
BBX 2 3 0 0
BITMAP
13
13
50
ENDCHAR
STARTCHAR two
ENCODING 50
SWIDTH 277 0
DWIDTH 2 0
BBX 3 3 0 0
BITMAP
0400
1310
4500
ENDCHAR
STARTCHAR three
ENCODING 51
SWIDTH 253 0
DWIDTH 2 0
BBX 3 5 -1 -2
BITMAP
0140
0040
0260
1030
1200
ENDCHAR
STARTCHAR four
ENCODING 52
SWIDTH 363 0
DWIDTH 3 0
BBX 4 4 0 0
BITMAP
0033
0250
3460
0500
ENDCHAR
STARTCHAR five
ENCODING 53
SWIDTH 250 0
DWIDTH 2 0
BBX 4 5 -1 -2
BITMAP
0052
0310
0050
1130
1200
ENDCHAR
STARTCHAR six
ENCODING 54
SWIDTH 296 0
DWIDTH 2 0
BBX 4 4 0 0
BITMAP
0232
1500
5140
5300
ENDCHAR
STARTCHAR seven
ENCODING 55
SWIDTH 326 0
DWIDTH 3 0
BBX 3 5 0 -2
BITMAP
1550
1020
0300
5000
1000
ENDCHAR
STARTCHAR eight
ENCODING 56
SWIDTH 305 0
DWIDTH 2 0
BBX 3 4 0 0
BITMAP
0350
0630
3250
5320
ENDCHAR
STARTCHAR nine
ENCODING 57
SWIDTH 304 0
DWIDTH 2 0
BBX 4 5 -1 -2
BITMAP
0031
0405
0452
1120
0100
ENDCHAR
STARTCHAR colon
ENCODING 58
SWIDTH 156 0
DWIDTH 1 0
BBX 1 2 0 0
BITMAP
20
20
ENDCHAR
STARTCHAR semicolon
ENCODING 59
SWIDTH 156 0
DWIDTH 1 0
BBX 1 3 0 -1
BITMAP
20
20
10
ENDCHAR
STARTCHAR less
ENCODING 60
SWIDTH 301 0
DWIDTH 2 0
BBX 3 2 0 0
BITMAP
2210
1300
ENDCHAR
STARTCHAR equal
ENCODING 61
SWIDTH 301 0
DWIDTH 2 0
BBX 2 2 0 0
BITMAP
12
22
ENDCHAR
STARTCHAR greater
ENCODING 62
SWIDTH 301 0
DWIDTH 2 0
BBX 2 2 0 0
BITMAP
14
21
ENDCHAR
STARTCHAR question
ENCODING 63
SWIDTH 285 0
DWIDTH 2 0
BBX 3 5 0 0
BITMAP
0010
0260
0140
1400
2000
ENDCHAR
STARTCHAR at
ENCODING 64
SWIDTH 492 0
DWIDTH 4 0
BBX 4 4 0 -1
BITMAP
1222
2353
4341
1420
ENDCHAR
STARTCHAR A
ENCODING 65
SWIDTH 996 0
DWIDTH 8 0
BBX 8 6 0 0
BITMAP
00000210
00002238
00010033
00002441
20013040
46420054
ENDCHAR
STARTCHAR B
ENCODING 66
SWIDTH 638 0
DWIDTH 5 0
BBX 6 6 0 0
BITMAP
000210
012461
003131
004260
112050
253230
ENDCHAR
STARTCHAR C
ENCODING 67
SWIDTH 557 0
DWIDTH 4 0
BBX 5 6 0 0
BITMAP
000210
022150
130000
500000
510010
052410
ENDCHAR
STARTCHAR D
ENCODING 68
SWIDTH 799 0
DWIDTH 6 0
BBX 7 6 0 0
BITMAP
00120000
02238200
01040600
00040140
00220030
46643300
ENDCHAR
STARTCHAR E
ENCODING 69
SWIDTH 494 0
DWIDTH 4 0
BBX 5 6 0 0
BITMAP
000200
013130
017000
120000
500100
342300
ENDCHAR
STARTCHAR F
ENCODING 70
SWIDTH 626 0
DWIDTH 5 0
BBX 7 6 0 0
BITMAP
00012000
00223530
00005000
00125000
20031000
44310000
ENDCHAR
STARTCHAR G
ENCODING 71
SWIDTH 571 0
DWIDTH 5 0
BBX 7 8 -1 -2
BITMAP
00000100
00013340
00030000
00410000
00512400
11035000
32012000
03210000
ENDCHAR
STARTCHAR H
ENCODING 72
SWIDTH 865 0
DWIDTH 7 0
BBX 10 6 0 0
BITMAP
0001100041
0022500201
0011303000
0016214000
2103043000
4320053000
ENDCHAR
STARTCHAR I
ENCODING 73
SWIDTH 554 0
DWIDTH 4 0
BBX 6 6 0 0
BITMAP
000001
000153
000240
001040
100410
543100
ENDCHAR
STARTCHAR J
ENCODING 74
SWIDTH 634 0
DWIDTH 5 0
BBX 7 8 0 -2
BITMAP
00000010
00002510
00011400
00022200
01015000
20012000
50120000
43100000
ENDCHAR
STARTCHAR K
ENCODING 75
SWIDTH 936 0
DWIDTH 7 0
BBX 8 6 0 0
BITMAP
00002001
00235234
00104200
00007100
30031500
44210441
ENDCHAR
STARTCHAR L
ENCODING 76
SWIDTH 657 0
DWIDTH 5 0
BBX 6 6 0 0
BITMAP
000001
000135
000300
000400
003000
556530
ENDCHAR
STARTCHAR M
ENCODING 77
SWIDTH 1219 0
DWIDTH 10 0
BBX 11 6 0 0
BITMAP
000012000010
000223640500
000100614300
100002424000
400021605000
464302306200
ENDCHAR
STARTCHAR N
ENCODING 78
SWIDTH 990 0
DWIDTH 8 0
BBX 11 6 0 0
BITMAP
000100000100
001355002410
000024202000
100020520000
300110430000
464200050000
ENDCHAR
STARTCHAR O
ENCODING 79
SWIDTH 606 0
DWIDTH 5 0
BBX 6 6 0 0
BITMAP
000200
013270
120032
400031
510030
174200
ENDCHAR
STARTCHAR P
ENCODING 80
SWIDTH 783 0
DWIDTH 6 0
BBX 7 6 0 0
BITMAP
00001200
00024360
00105050
00015140
20031200
34310000
ENDCHAR
STARTCHAR Q
ENCODING 81
SWIDTH 563 0
DWIDTH 5 0
BBX 6 8 0 -2
BITMAP
000100
012250
030060
220050
061220
242100
025401
000152
ENDCHAR
STARTCHAR R
ENCODING 82
SWIDTH 854 0
DWIDTH 7 0
BBX 7 6 0 0
BITMAP
00001200
00015340
00004040
00034200
20044100
44210620
ENDCHAR
STARTCHAR S
ENCODING 83
SWIDTH 480 0
DWIDTH 4 0
BBX 5 6 0 0
BITMAP
000100
003310
006000
002400
200400
442200
ENDCHAR
STARTCHAR T
ENCODING 84
SWIDTH 577 0
DWIDTH 5 0
BBX 7 6 0 0
BITMAP
00021000
01323720
01004000
00004000
20040000
54210000
ENDCHAR
STARTCHAR U
ENCODING 85
SWIDTH 752 0
DWIDTH 6 0
BBX 7 6 0 0
BITMAP
00110010
03250040
10300500
10400600
03202400
02621600
ENDCHAR
STARTCHAR V
ENCODING 86
SWIDTH 661 0
DWIDTH 5 0
BBX 6 6 0 0
BITMAP
001001
034317
100404
000402
000420
001500
ENDCHAR
STARTCHAR W
ENCODING 87
SWIDTH 822 0
DWIDTH 7 0
BBX 8 6 0 0
BITMAP
01100000
12511115
10036003
00044030
00225210
00305100
ENDCHAR
STARTCHAR X
ENCODING 88
SWIDTH 813 0
DWIDTH 7 0
BBX 7 6 0 0
BITMAP
00010010
00261450
00042000
00041000
10125000
54204520
ENDCHAR
STARTCHAR Y
ENCODING 89
SWIDTH 662 0
DWIDTH 5 0
BBX 7 7 0 -1
BITMAP
00010000
00160050
00040330
00231600
21254100
50013000
64420000
ENDCHAR
STARTCHAR Z
ENCODING 90
SWIDTH 625 0
DWIDTH 5 0
BBX 6 6 0 0
BITMAP
000200
004353
000120
001200
021010
275530
ENDCHAR
STARTCHAR bracketleft
ENCODING 91
SWIDTH 318 0
DWIDTH 3 0
BBX 4 6 0 -1
BITMAP
0251
0400
0500
0500
1400
3300
ENDCHAR
STARTCHAR backslash
ENCODING 92
SWIDTH 212 0
DWIDTH 2 0
BBX 2 6 0 -1
BITMAP
20
20
20
21
03
01
ENDCHAR
STARTCHAR bracketright
ENCODING 93
SWIDTH 339 0
DWIDTH 3 0
BBX 3 6 0 -1
BITMAP
0160
0050
0040
0410
0500
2400
ENDCHAR
STARTCHAR asciicircum
ENCODING 94
SWIDTH 272 0
DWIDTH 2 0
BBX 2 2 0 1
BITMAP
05
12
ENDCHAR
STARTCHAR underscore
ENCODING 95
SWIDTH 356 0
DWIDTH 3 0
BBX 3 1 0 -1
BITMAP
2210
ENDCHAR
STARTCHAR grave
ENCODING 96
SWIDTH 155 0
DWIDTH 1 0
BBX 1 1 0 2
BITMAP
30
ENDCHAR
STARTCHAR a
ENCODING 97
SWIDTH 294 0
DWIDTH 2 0
BBX 3 2 0 0
BITMAP
2510
5600
ENDCHAR
STARTCHAR b
ENCODING 98
SWIDTH 247 0
DWIDTH 2 0
BBX 5 6 0 0
BITMAP
002410
010000
020000
210000
560000
620000
ENDCHAR
STARTCHAR c
ENCODING 99
SWIDTH 203 0
DWIDTH 2 0
BBX 2 2 0 0
BITMAP
23
51
ENDCHAR
STARTCHAR d
ENCODING 100
SWIDTH 285 0
DWIDTH 2 0
BBX 5 6 0 0
BITMAP
000140
001100
002000
013000
360000
560000
ENDCHAR
STARTCHAR e
ENCODING 101
SWIDTH 206 0
DWIDTH 2 0
BBX 2 2 0 0
BITMAP
34
51
ENDCHAR
STARTCHAR f
ENCODING 102
SWIDTH 156 0
DWIDTH 1 0
BBX 8 8 -3 -2
BITMAP
00000141
00001100
00003000
00004000
00051000
00040000
00120000
22100000
ENDCHAR
STARTCHAR g
ENCODING 103
SWIDTH 210 0
DWIDTH 2 0
BBX 3 5 -1 -2
BITMAP
0010
0350
0420
3140
5230
ENDCHAR
STARTCHAR h
ENCODING 104
SWIDTH 292 0
DWIDTH 2 0
BBX 5 6 0 0
BITMAP
001330
011000
030000
130000
451000
550000
ENDCHAR
STARTCHAR i
ENCODING 105
SWIDTH 149 0
DWIDTH 1 0
BBX 2 3 0 0
BITMAP
01
40
50
ENDCHAR
STARTCHAR j
ENCODING 106
SWIDTH 136 0
DWIDTH 1 0
BBX 5 5 -3 -2
BITMAP
000010
000500
000400
001200
221000
ENDCHAR
STARTCHAR k
ENCODING 107
SWIDTH 259 0
DWIDTH 2 0
BBX 5 6 0 0
BITMAP
001320
011000
030000
220000
450000
450000
ENDCHAR
STARTCHAR l
ENCODING 108
SWIDTH 134 0
DWIDTH 1 0
BBX 4 6 0 0
BITMAP
0024
0110
0200
2100
3000
6000
ENDCHAR
STARTCHAR m
ENCODING 109
SWIDTH 413 0
DWIDTH 3 0
BBX 4 2 0 0
BITMAP
5651
4450
ENDCHAR
STARTCHAR n
ENCODING 110
SWIDTH 291 0
DWIDTH 2 0
BBX 3 2 0 0
BITMAP
5510
4510
ENDCHAR
STARTCHAR o
ENCODING 111
SWIDTH 225 0
DWIDTH 2 0
BBX 2 2 0 0
BITMAP
25
52
ENDCHAR
STARTCHAR p
ENCODING 112
SWIDTH 261 0
DWIDTH 2 0
BBX 3 5 -1 -2
BITMAP
0100
0460
0530
1300
3200
ENDCHAR
STARTCHAR q
ENCODING 113
SWIDTH 269 0
DWIDTH 2 0
BBX 3 4 0 -2
BITMAP
2510
5500
1300
4100
ENDCHAR
STARTCHAR r
ENCODING 114
SWIDTH 195 0
DWIDTH 2 0
BBX 2 2 0 0
BITMAP
53
40
ENDCHAR
STARTCHAR s
ENCODING 115
SWIDTH 188 0
DWIDTH 2 0
BBX 2 2 0 0
BITMAP
41
42
ENDCHAR
STARTCHAR t
ENCODING 116
SWIDTH 171 0
DWIDTH 1 0
BBX 2 3 0 0
BITMAP
13
51
51
ENDCHAR
STARTCHAR u
ENCODING 117
SWIDTH 299 0
DWIDTH 2 0
BBX 3 2 0 0
BITMAP
4410
6600
ENDCHAR
STARTCHAR v
ENCODING 118
SWIDTH 271 0
DWIDTH 2 0
BBX 3 2 0 0
BITMAP
5310
5200
ENDCHAR
STARTCHAR w
ENCODING 119
SWIDTH 369 0
DWIDTH 3 0
BBX 3 2 0 0
BITMAP
5330
4520
ENDCHAR
STARTCHAR x
ENCODING 120
SWIDTH 263 0
DWIDTH 2 0
BBX 3 2 0 0
BITMAP
4310
4500
ENDCHAR
STARTCHAR y
ENCODING 121
SWIDTH 280 0
DWIDTH 2 0
BBX 5 4 -2 -2
BITMAP
004310
006500
100300
332000
ENDCHAR
STARTCHAR z
ENCODING 122
SWIDTH 238 0
DWIDTH 2 0
BBX 2 2 0 0
BITMAP
25
52
ENDCHAR
STARTCHAR braceleft
ENCODING 123
SWIDTH 291 0
DWIDTH 2 0
BBX 3 6 0 -1
BITMAP
0230
0400
1400
0500
3200
2200
ENDCHAR
STARTCHAR bar
ENCODING 124
SWIDTH 162 0
DWIDTH 1 0
BBX 1 7 0 -2
BITMAP
30
30
30
30
30
30
20
ENDCHAR
STARTCHAR braceright
ENCODING 125
SWIDTH 285 0
DWIDTH 2 0
BBX 3 6 0 -1
BITMAP
0140
0230
0410
0400
0400
3100
ENDCHAR
STARTCHAR asciitilde
ENCODING 126
SWIDTH 383 0
DWIDTH 3 0
BBX 3 1 0 1
BITMAP
1420
ENDCHAR
STARTCHAR space.dup1
ENCODING 160
SWIDTH 150 0
DWIDTH 1 0
BBX 1 1 0 0
BITMAP
00
ENDCHAR
STARTCHAR exclamdown
ENCODING 161
SWIDTH 189 0
DWIDTH 2 0
BBX 3 5 -1 -3
BITMAP
0020
0200
0300
4100
1000
ENDCHAR
STARTCHAR cent
ENCODING 162
SWIDTH 194 0
DWIDTH 2 0
BBX 2 4 0 -1
BITMAP
14
51
50
10
ENDCHAR
STARTCHAR sterling
ENCODING 163
SWIDTH 344 0
DWIDTH 3 0
BBX 3 3 0 0
BITMAP
0130
1510
4510
ENDCHAR
STARTCHAR currency
ENCODING 164
SWIDTH 344 0
DWIDTH 3 0
BBX 3 3 0 0
BITMAP
1110
2130
3310
ENDCHAR
STARTCHAR yen
ENCODING 165
SWIDTH 309 0
DWIDTH 2 0
BBX 3 3 0 0
BITMAP
2120
3400
5100
ENDCHAR
STARTCHAR brokenbar
ENCODING 166
SWIDTH 162 0
DWIDTH 1 0
BBX 1 7 0 -2
BITMAP
30
30
10
00
20
30
20
ENDCHAR
STARTCHAR section
ENCODING 167
SWIDTH 395 0
DWIDTH 3 0
BBX 5 7 -1 -2
BITMAP
000110
003450
007100
005400
005500
204400
345100
ENDCHAR
STARTCHAR dieresis
ENCODING 168
SWIDTH 174 0
DWIDTH 1 0
BBX 2 1 0 2
BITMAP
21
ENDCHAR
STARTCHAR copyright
ENCODING 169
SWIDTH 331 0
DWIDTH 3 0
BBX 3 2 0 1
BITMAP
1520
2410
ENDCHAR
STARTCHAR ordfeminine
ENCODING 170
SWIDTH 226 0
DWIDTH 2 0
BBX 2 2 0 1
BITMAP
12
22
ENDCHAR
STARTCHAR guillemotleft
ENCODING 171
SWIDTH 289 0
DWIDTH 2 0
BBX 3 2 0 0
BITMAP
2620
5A00
ENDCHAR
STARTCHAR logicalnot
ENCODING 172
SWIDTH 265 0
DWIDTH 2 0
BBX 2 1 0 1
BITMAP
15
ENDCHAR
STARTCHAR registered
ENCODING 174
SWIDTH 331 0
DWIDTH 3 0
BBX 3 2 0 1
BITMAP
1420
2410
ENDCHAR
STARTCHAR degree
ENCODING 176
SWIDTH 104 0
DWIDTH 1 0
BBX 2 1 0 2
BITMAP
11
ENDCHAR
STARTCHAR plusminus
ENCODING 177
SWIDTH 301 0
DWIDTH 2 0
BBX 2 2 0 0
BITMAP
15
23
ENDCHAR
STARTCHAR twosuperior
ENCODING 178
SWIDTH 215 0
DWIDTH 2 0
BBX 2 2 0 1
BITMAP
02
22
ENDCHAR
STARTCHAR threesuperior
ENCODING 179
SWIDTH 190 0
DWIDTH 2 0
BBX 2 2 0 1
BITMAP
01
22
ENDCHAR
STARTCHAR acute
ENCODING 180
SWIDTH 157 0
DWIDTH 1 0
BBX 1 1 0 2
BITMAP
30
ENDCHAR
STARTCHAR mu
ENCODING 181
SWIDTH 324 0
DWIDTH 3 0
BBX 3 3 0 -1
BITMAP
3330
7520
4000
ENDCHAR
STARTCHAR paragraph
ENCODING 182
SWIDTH 392 0
DWIDTH 3 0
BBX 5 5 -1 -2
BITMAP
002410
01E500
02B400
106200
543000
ENDCHAR
STARTCHAR periodcentered
ENCODING 183
SWIDTH 112 0
DWIDTH 1 0
BBX 1 1 0 1
BITMAP
20
ENDCHAR
STARTCHAR cedilla
ENCODING 184
SWIDTH 115 0
DWIDTH 1 0
BBX 1 1 0 -1
BITMAP
20
ENDCHAR
STARTCHAR onesuperior
ENCODING 185
SWIDTH 174 0
DWIDTH 1 0
BBX 2 2 0 1
BITMAP
21
20
ENDCHAR
STARTCHAR ordmasculine
ENCODING 186
SWIDTH 178 0
DWIDTH 1 0
BBX 2 2 0 1
BITMAP
11
21
ENDCHAR
STARTCHAR guillemotright
ENCODING 187
SWIDTH 276 0
DWIDTH 2 0
BBX 2 2 0 0
BITMAP
46
32
ENDCHAR
STARTCHAR onequarter
ENCODING 188
SWIDTH 435 0
DWIDTH 3 0
BBX 4 4 0 -1
BITMAP
0220
2331
2250
1000
ENDCHAR
STARTCHAR onehalf
ENCODING 189
SWIDTH 434 0
DWIDTH 3 0
BBX 4 4 0 -1
BITMAP
0220
2332
2241
1000
ENDCHAR
STARTCHAR threequarters
ENCODING 190
SWIDTH 476 0
DWIDTH 4 0
BBX 4 4 0 -1
BITMAP
0211
0433
1441
1000
ENDCHAR
STARTCHAR questiondown
ENCODING 191
SWIDTH 285 0
DWIDTH 2 0
BBX 4 5 -1 -3
BITMAP
0021
0040
2300
4410
0100
ENDCHAR
STARTCHAR Agrave
ENCODING 192
SWIDTH 996 0
DWIDTH 8 0
BBX 8 6 0 0
BITMAP
00000213
00002238
00010033
00002441
20013040
46420054
ENDCHAR
STARTCHAR Aacute
ENCODING 193
SWIDTH 996 0
DWIDTH 8 0
BBX 9 6 0 0
BITMAP
0000021310
0000223800
0001003300
0000244100
2001304000
4642005400
ENDCHAR
STARTCHAR Acircumflex
ENCODING 194
SWIDTH 996 0
DWIDTH 8 0
BBX 9 6 0 0
BITMAP
0000021310
0000223800
0001003300
0000244100
2001304000
4642005400
ENDCHAR
STARTCHAR Atilde
ENCODING 195
SWIDTH 996 0
DWIDTH 8 0
BBX 9 6 0 0
BITMAP
0000021310
0000223800
0001003300
0000244100
2001304000
4642005400
ENDCHAR
STARTCHAR Adieresis
ENCODING 196
SWIDTH 996 0
DWIDTH 8 0
BBX 9 6 0 0
BITMAP
0000021110
0000223800
0001003300
0000244100
2001304000
4642005400
ENDCHAR
STARTCHAR Aring
ENCODING 197
SWIDTH 996 0
DWIDTH 8 0
BBX 9 6 0 0
BITMAP
0000021110
0000223800
0001003300
0000244100
2001304000
4642005400
ENDCHAR
STARTCHAR AE
ENCODING 198
SWIDTH 1271 0
DWIDTH 10 0
BBX 11 6 0 0
BITMAP
000002100200
000022384130
000100347100
000024350000
300130320100
564300152400
ENDCHAR
STARTCHAR Ccedilla
ENCODING 199
SWIDTH 557 0
DWIDTH 4 0
BBX 5 7 0 -1
BITMAP
000210
022150
130000
500000
510010
062410
002000
ENDCHAR
STARTCHAR Egrave
ENCODING 200
SWIDTH 463 0
DWIDTH 4 0
BBX 5 6 0 0
BITMAP
002400
031310
034000
210000
500100
533200
ENDCHAR
STARTCHAR Eacute
ENCODING 201
SWIDTH 463 0
DWIDTH 4 0
BBX 5 6 0 0
BITMAP
001400
031310
034000
210000
500100
533200
ENDCHAR
STARTCHAR Ecircumflex
ENCODING 202
SWIDTH 463 0
DWIDTH 4 0
BBX 5 6 0 0
BITMAP
002400
031310
034000
210000
500100
533200
ENDCHAR
STARTCHAR Edieresis
ENCODING 203
SWIDTH 463 0
DWIDTH 4 0
BBX 5 6 0 0
BITMAP
001300
031310
034000
210000
500100
533200
ENDCHAR
STARTCHAR Igrave
ENCODING 204
SWIDTH 514 0
DWIDTH 4 0
BBX 6 6 0 0
BITMAP
000031
000261
001140
001220
201400
642000
ENDCHAR
STARTCHAR Iacute
ENCODING 205
SWIDTH 514 0
DWIDTH 4 0
BBX 6 6 0 0
BITMAP
000031
000261
001140
001220
201400
642000
ENDCHAR
STARTCHAR Icircumflex
ENCODING 206
SWIDTH 514 0
DWIDTH 4 0
BBX 6 6 0 0
BITMAP
000032
000261
001140
001220
201400
642000
ENDCHAR
STARTCHAR Idieresis
ENCODING 207
SWIDTH 514 0
DWIDTH 4 0
BBX 6 6 0 0
BITMAP
000022
000261
001140
001220
201400
642000
ENDCHAR
STARTCHAR Eth
ENCODING 208
SWIDTH 800 0
DWIDTH 6 0
BBX 7 6 0 0
BITMAP
00120100
02239200
00040600
00151140
00220030
45643300
ENDCHAR
STARTCHAR Ntilde
ENCODING 209
SWIDTH 796 0
DWIDTH 6 0
BBX 11 6 -2 0
BITMAP
000010031010
000337000530
000003503000
010011322000
120020060000
075300050000
ENDCHAR
STARTCHAR Ograve
ENCODING 210
SWIDTH 608 0
DWIDTH 5 0
BBX 6 6 0 0
BITMAP
000500
013270
120022
400031
510030
174200
ENDCHAR
STARTCHAR Oacute
ENCODING 211
SWIDTH 608 0
DWIDTH 5 0
BBX 6 6 0 0
BITMAP
000500
013270
120022
400031
510030
174200
ENDCHAR
STARTCHAR Ocircumflex
ENCODING 212
SWIDTH 608 0
DWIDTH 5 0
BBX 6 6 0 0
BITMAP
000510
013270
120022
400031
510030
174200
ENDCHAR
STARTCHAR Otilde
ENCODING 213
SWIDTH 608 0
DWIDTH 5 0
BBX 6 6 0 0
BITMAP
001410
013270
120022
400031
510030
174200
ENDCHAR
STARTCHAR Odieresis
ENCODING 214
SWIDTH 608 0
DWIDTH 5 0
BBX 6 6 0 0
BITMAP
000410
013270
120022
400031
510030
174200
ENDCHAR
STARTCHAR multiply
ENCODING 215
SWIDTH 301 0
DWIDTH 2 0
BBX 2 2 0 0
BITMAP
05
22
ENDCHAR
STARTCHAR Oslash
ENCODING 216
SWIDTH 605 0
DWIDTH 5 0
BBX 6 6 0 0
BITMAP
000210
023480
120232
402031
521030
184200
ENDCHAR
STARTCHAR Ugrave
ENCODING 217
SWIDTH 717 0
DWIDTH 6 0
BBX 7 6 0 0
BITMAP
00203010
13330320
20300500
13102400
05006100
05425300
ENDCHAR
STARTCHAR Uacute
ENCODING 218
SWIDTH 717 0
DWIDTH 6 0
BBX 7 6 0 0
BITMAP
00201210
13330320
20300500
13102400
05006100
05425300
ENDCHAR
STARTCHAR Ucircumflex
ENCODING 219
SWIDTH 718 0
DWIDTH 6 0
BBX 7 6 0 0
BITMAP
00202210
13330320
20300500
13102400
05006100
05425300
ENDCHAR
STARTCHAR Udieresis
ENCODING 220
SWIDTH 718 0
DWIDTH 6 0
BBX 7 6 0 0
BITMAP
00201110
13330320
20300500
13102400
05006100
05425300
ENDCHAR
STARTCHAR Yacute
ENCODING 221
SWIDTH 662 0
DWIDTH 5 0
BBX 7 7 0 -1
BITMAP
00010300
00160050
00040330
00231600
21254100
50013000
64420000
ENDCHAR
STARTCHAR Thorn
ENCODING 222
SWIDTH 745 0
DWIDTH 6 0
BBX 7 6 0 0
BITMAP
00000100
00004300
00025520
00004230
20042300
34310000
ENDCHAR
STARTCHAR germandbls
ENCODING 223
SWIDTH 304 0
DWIDTH 2 0
BBX 8 8 -3 -2
BITMAP
00000252
00002121
00003120
00024100
00055000
00054100
00220000
22200000
ENDCHAR
STARTCHAR agrave
ENCODING 224
SWIDTH 294 0
DWIDTH 2 0
BBX 3 3 0 0
BITMAP
0200
2510
5600
ENDCHAR
STARTCHAR aacute
ENCODING 225
SWIDTH 294 0
DWIDTH 2 0
BBX 3 3 0 0
BITMAP
0210
2510
5600
ENDCHAR
STARTCHAR acircumflex
ENCODING 226
SWIDTH 294 0
DWIDTH 2 0
BBX 3 3 0 0
BITMAP
0210
2510
5600
ENDCHAR
STARTCHAR atilde
ENCODING 227
SWIDTH 294 0
DWIDTH 2 0
BBX 3 3 0 0
BITMAP
0210
2510
5600
ENDCHAR
STARTCHAR adieresis
ENCODING 228
SWIDTH 284 0
DWIDTH 2 0
BBX 3 3 0 0
BITMAP
0210
2510
5600
ENDCHAR
STARTCHAR aring
ENCODING 229
SWIDTH 294 0
DWIDTH 2 0
BBX 3 3 0 0
BITMAP
0200
2510
5600
ENDCHAR
STARTCHAR ae
ENCODING 230
SWIDTH 363 0
DWIDTH 3 0
BBX 3 2 0 0
BITMAP
2650
5620
ENDCHAR
STARTCHAR ccedilla
ENCODING 231
SWIDTH 203 0
DWIDTH 2 0
BBX 2 3 0 -1
BITMAP
23
51
20
ENDCHAR
STARTCHAR egrave
ENCODING 232
SWIDTH 206 0
DWIDTH 2 0
BBX 2 3 0 0
BITMAP
03
34
51
ENDCHAR
STARTCHAR eacute
ENCODING 233
SWIDTH 206 0
DWIDTH 2 0
BBX 2 3 0 0
BITMAP
03
34
51
ENDCHAR
STARTCHAR ecircumflex
ENCODING 234
SWIDTH 206 0
DWIDTH 2 0
BBX 2 3 0 0
BITMAP
13
34
51
ENDCHAR
STARTCHAR edieresis
ENCODING 235
SWIDTH 206 0
DWIDTH 2 0
BBX 2 3 0 0
BITMAP
03
34
51
ENDCHAR
STARTCHAR igrave
ENCODING 236
SWIDTH 149 0
DWIDTH 1 0
BBX 2 3 0 0
BITMAP
12
40
50
ENDCHAR
STARTCHAR iacute
ENCODING 237
SWIDTH 149 0
DWIDTH 1 0
BBX 2 3 0 0
BITMAP
02
40
50
ENDCHAR
STARTCHAR icircumflex
ENCODING 238
SWIDTH 149 0
DWIDTH 1 0
BBX 2 3 0 0
BITMAP
12
40
50
ENDCHAR
STARTCHAR idieresis
ENCODING 239
SWIDTH 149 0
DWIDTH 1 0
BBX 2 3 0 0
BITMAP
12
40
50
ENDCHAR
STARTCHAR eth
ENCODING 240
SWIDTH 234 0
DWIDTH 2 0
BBX 2 6 0 0
BITMAP
10
50
24
03
34
52
ENDCHAR
STARTCHAR ntilde
ENCODING 241
SWIDTH 291 0
DWIDTH 2 0
BBX 3 3 0 0
BITMAP
0210
5510
4510
ENDCHAR
STARTCHAR ograve
ENCODING 242
SWIDTH 225 0
DWIDTH 2 0
BBX 2 3 0 0
BITMAP
03
25
52
ENDCHAR
STARTCHAR oacute
ENCODING 243
SWIDTH 225 0
DWIDTH 2 0
BBX 2 3 0 0
BITMAP
03
25
52
ENDCHAR
STARTCHAR ocircumflex
ENCODING 244
SWIDTH 225 0
DWIDTH 2 0
BBX 2 3 0 0
BITMAP
03
25
52
ENDCHAR
STARTCHAR otilde
ENCODING 245
SWIDTH 225 0
DWIDTH 2 0
BBX 2 3 0 0
BITMAP
02
25
52
ENDCHAR
STARTCHAR odieresis
ENCODING 246
SWIDTH 225 0
DWIDTH 2 0
BBX 2 3 0 0
BITMAP
03
25
52
ENDCHAR
STARTCHAR divide
ENCODING 247
SWIDTH 301 0
DWIDTH 2 0
BBX 2 2 0 0
BITMAP
13
01
ENDCHAR
STARTCHAR oslash
ENCODING 248
SWIDTH 225 0
DWIDTH 2 0
BBX 2 3 0 0
BITMAP
01
36
72
ENDCHAR
STARTCHAR ugrave
ENCODING 249
SWIDTH 299 0
DWIDTH 2 0
BBX 3 3 0 0
BITMAP
0210
4410
6600
ENDCHAR
STARTCHAR uacute
ENCODING 250
SWIDTH 299 0
DWIDTH 2 0
BBX 3 3 0 0
BITMAP
0210
4410
6600
ENDCHAR
STARTCHAR ucircumflex
ENCODING 251
SWIDTH 299 0
DWIDTH 2 0
BBX 3 3 0 0
BITMAP
0210
4410
6600
ENDCHAR
STARTCHAR udieresis
ENCODING 252
SWIDTH 299 0
DWIDTH 2 0
BBX 3 3 0 0
BITMAP
0210
4410
6600
ENDCHAR
STARTCHAR yacute
ENCODING 253
SWIDTH 280 0
DWIDTH 2 0
BBX 5 5 -2 -2
BITMAP
000110
004310
006500
100300
332000
ENDCHAR
STARTCHAR thorn
ENCODING 254
SWIDTH 261 0
DWIDTH 2 0
BBX 3 6 -1 -2
BITMAP
0040
0030
0460
0530
1300
3200
ENDCHAR
STARTCHAR ydieresis
ENCODING 255
SWIDTH 280 0
DWIDTH 2 0
BBX 5 5 -2 -2
BITMAP
000210
004310
006500
100300
332000
ENDCHAR
STARTCHAR dotlessi
ENCODING 305
SWIDTH 149 0
DWIDTH 1 0
BBX 1 2 0 0
BITMAP
40
50
ENDCHAR
STARTCHAR Lslash
ENCODING 321
SWIDTH 657 0
DWIDTH 5 0
BBX 6 6 0 0
BITMAP
000001
000135
000300
002510
003000
556530
ENDCHAR
STARTCHAR lslash
ENCODING 322
SWIDTH 134 0
DWIDTH 1 0
BBX 4 6 0 0
BITMAP
0024
0110
1300
2100
3000
6000
ENDCHAR
STARTCHAR OE
ENCODING 338
SWIDTH 827 0
DWIDTH 7 0
BBX 7 6 0 0
BITMAP
00020110
01337140
12004400
40031000
51050010
17473320
ENDCHAR
STARTCHAR oe
ENCODING 339
SWIDTH 345 0
DWIDTH 3 0
BBX 3 2 0 0
BITMAP
2750
5610
ENDCHAR
STARTCHAR Scaron
ENCODING 352
SWIDTH 480 0
DWIDTH 4 0
BBX 5 6 0 0
BITMAP
000500
003310
006000
002400
200400
442200
ENDCHAR
STARTCHAR scaron
ENCODING 353
SWIDTH 188 0
DWIDTH 2 0
BBX 2 4 0 0
BITMAP
10
02
41
42
ENDCHAR
STARTCHAR Ydieresis
ENCODING 376
SWIDTH 662 0
DWIDTH 5 0
BBX 7 7 0 -1
BITMAP
00011100
00160050
00040330
00231600
21254100
50013000
64420000
ENDCHAR
STARTCHAR Zcaron
ENCODING 381
SWIDTH 625 0
DWIDTH 5 0
BBX 6 6 0 0
BITMAP
000330
004353
000120
001200
021010
275530
ENDCHAR
STARTCHAR zcaron
ENCODING 382
SWIDTH 248 0
DWIDTH 2 0
BBX 2 4 0 0
BITMAP
01
03
24
52
ENDCHAR
STARTCHAR florin
ENCODING 402
SWIDTH 214 0
DWIDTH 2 0
BBX 3 4 -1 -1
BITMAP
0030
0420
0400
2100
ENDCHAR
STARTCHAR circumflex
ENCODING 710
SWIDTH 196 0
DWIDTH 2 0
BBX 2 1 0 2
BITMAP
21
ENDCHAR
STARTCHAR caron
ENCODING 711
SWIDTH 196 0
DWIDTH 2 0
BBX 1 2 0 2
BITMAP
10
20
ENDCHAR
STARTCHAR breve
ENCODING 728
SWIDTH 198 0
DWIDTH 2 0
BBX 2 1 0 2
BITMAP
21
ENDCHAR
STARTCHAR dotaccent
ENCODING 729
SWIDTH 89 0
DWIDTH 1 0
BBX 1 1 0 2
BITMAP
20
ENDCHAR
STARTCHAR ring
ENCODING 730
SWIDTH 117 0
DWIDTH 1 0
BBX 1 1 0 2
BITMAP
20
ENDCHAR
STARTCHAR ogonek
ENCODING 731
SWIDTH 124 0
DWIDTH 1 0
BBX 1 1 0 -1
BITMAP
30
ENDCHAR
STARTCHAR tilde
ENCODING 732
SWIDTH 222 0
DWIDTH 2 0
BBX 2 1 0 2
BITMAP
21
ENDCHAR
STARTCHAR hungarumlaut
ENCODING 733
SWIDTH 253 0
DWIDTH 2 0
BBX 2 1 0 2
BITMAP
33
ENDCHAR
STARTCHAR mu.dup2
ENCODING 956
SWIDTH 324 0
DWIDTH 3 0
BBX 3 3 0 -1
BITMAP
3330
7520
4000
ENDCHAR
STARTCHAR endash
ENCODING 8211
SWIDTH 500 0
DWIDTH 4 0
BBX 4 1 0 1
BITMAP
1222
ENDCHAR
STARTCHAR emdash
ENCODING 8212
SWIDTH 1000 0
DWIDTH 8 0
BBX 8 1 0 1
BITMAP
12222222
ENDCHAR
STARTCHAR quoteleft
ENCODING 8216
SWIDTH 87 0
DWIDTH 1 0
BBX 1 1 0 2
BITMAP
30
ENDCHAR
STARTCHAR quoteright
ENCODING 8217
SWIDTH 87 0
DWIDTH 1 0
BBX 1 2 0 2
BITMAP
10
20
ENDCHAR
STARTCHAR quotesinglbase
ENCODING 8218
SWIDTH 112 0
DWIDTH 1 0
BBX 1 2 0 -1
BITMAP
20
10
ENDCHAR
STARTCHAR quotedblleft
ENCODING 8220
SWIDTH 167 0
DWIDTH 1 0
BBX 2 2 0 2
BITMAP
01
33
ENDCHAR
STARTCHAR quotedblright
ENCODING 8221
SWIDTH 167 0
DWIDTH 1 0
BBX 2 2 0 2
BITMAP
11
22
ENDCHAR
STARTCHAR quotedblbase
ENCODING 8222
SWIDTH 192 0
DWIDTH 2 0
BBX 2 2 0 -1
BITMAP
22
21
ENDCHAR
STARTCHAR dagger
ENCODING 8224
SWIDTH 185 0
DWIDTH 1 0
BBX 2 5 0 -1
BITMAP
03
33
30
20
10
ENDCHAR
STARTCHAR daggerdbl
ENCODING 8225
SWIDTH 185 0
DWIDTH 1 0
BBX 2 5 0 -1
BITMAP
03
33
30
31
10
ENDCHAR
STARTCHAR bullet
ENCODING 8226
SWIDTH 207 0
DWIDTH 2 0
BBX 2 2 0 0
BITMAP
43
20
ENDCHAR
STARTCHAR ellipsis
ENCODING 8230
SWIDTH 376 0
DWIDTH 3 0
BBX 3 1 0 0
BITMAP
2220
ENDCHAR
STARTCHAR perthousand
ENCODING 8240
SWIDTH 571 0
DWIDTH 5 0
BBX 5 4 0 -1
BITMAP
123000
544220
154520
200000
ENDCHAR
STARTCHAR guilsinglleft
ENCODING 8249
SWIDTH 189 0
DWIDTH 2 0
BBX 2 2 0 0
BITMAP
21
50
ENDCHAR
STARTCHAR guilsinglright
ENCODING 8250
SWIDTH 176 0
DWIDTH 1 0
BBX 2 2 0 0
BITMAP
41
20
ENDCHAR
STARTCHAR fraction
ENCODING 8260
SWIDTH 220 0
DWIDTH 2 0
BBX 3 4 0 -1
BITMAP
0120
0300
3000
1000
ENDCHAR
STARTCHAR Euro
ENCODING 8364
SWIDTH 360 0
DWIDTH 3 0
BBX 3 3 0 0
BITMAP
0220
6200
4300
ENDCHAR
STARTCHAR trademark
ENCODING 8482
SWIDTH 389 0
DWIDTH 3 0
BBX 3 2 0 1
BITMAP
1120
2230
ENDCHAR
STARTCHAR minus
ENCODING 8722
SWIDTH 301 0
DWIDTH 2 0
BBX 2 1 0 1
BITMAP
12
ENDCHAR
STARTCHAR fi
ENCODING 64257
SWIDTH 297 0
DWIDTH 2 0
BBX 8 8 -3 -2
BITMAP
00000141
00001100
00003000
00004100
00054200
00045000
00120000
22100000
ENDCHAR
STARTCHAR fl
ENCODING 64258
SWIDTH 290 0
DWIDTH 2 0
BBX 8 8 -3 -2
BITMAP
00000144
00001110
00003200
00014200
00055000
00045100
00120000
22200000
ENDCHAR
STARTCHAR .notdef
ENCODING -1
SWIDTH 150 0
DWIDTH 1 0
BBX 1 1 0 0
BITMAP
00
ENDCHAR
STARTCHAR .null
ENCODING -1
SWIDTH 0 0
DWIDTH 0 0
BBX 1 1 0 0
BITMAP
00
ENDCHAR
STARTCHAR nonmarkingreturn
ENCODING -1
SWIDTH 150 0
DWIDTH 1 0
BBX 1 1 0 0
BITMAP
00
ENDCHAR
ENDFONT
